<svg width="105" height="105" viewBox="0 0 105 105" fill="none" xmlns="http://www.w3.org/2000/svg">
<path d="M37.7344 74.2382H25.8398V62.3437C25.8398 61.8925 25.4707 61.5234 25.0195 61.5234H20.0977C19.6465 61.5234 19.2773 61.8925 19.2773 62.3437V74.2382H7.38281C6.93164 74.2382 6.5625 74.6074 6.5625 75.0585V79.9804C6.5625 80.4316 6.93164 80.8007 7.38281 80.8007H19.2773V92.6952C19.2773 93.1464 19.6465 93.5156 20.0977 93.5156H25.0195C25.4707 93.5156 25.8398 93.1464 25.8398 92.6952V80.8007H37.7344C38.1855 80.8007 38.5547 80.4316 38.5547 79.9804V75.0585C38.5547 74.6074 38.1855 74.2382 37.7344 74.2382Z" fill="#D1D5DB"/>
<path d="M93.5156 30.9975L80.3906 38.5546V22.9687C80.3906 19.3491 77.4478 16.4062 73.8281 16.4062H13.125C9.50537 16.4062 6.5625 19.3491 6.5625 22.9687V59.0624H13.9453V23.789H73.0078V81.2109H45.9375V88.5937H73.8281C77.4478 88.5937 80.3906 85.6508 80.3906 82.0312V66.4452L93.5156 74.0024C95.6997 75.2636 98.4375 73.6845 98.4375 71.1723V33.8378C98.4375 31.3154 95.6997 29.7363 93.5156 30.9975ZM91.0547 64.0868L80.3906 57.955V47.0551L91.0547 40.913V64.0868Z" fill="#D1D5DB"/>
<path d="M32.8125 36.914C33.2637 36.914 33.6328 36.5449 33.6328 36.0937V31.1718C33.6328 30.7206 33.2637 30.3515 32.8125 30.3515H21.3281C20.877 30.3515 20.5078 30.7206 20.5078 31.1718V36.0937C20.5078 36.5449 20.877 36.914 21.3281 36.914H32.8125Z" fill="#D1D5DB"/>
</svg>
